<?xml version="1.0" encoding="UTF-8"?>
<svg width="175px" height="16px" viewBox="0 0 175 16" version="1.1" xmlns="http://www.w3.org/2000/svg" xmlns:xlink="http://www.w3.org/1999/xlink">
    <!-- Generator: Sketch Beta 40.3 (33838) - http://www.bohemiancoding.com/sketch -->
    <title>Group</title>
    <desc>Created with Sketch Beta.</desc>
    <defs></defs>
    <g id="Page-1" stroke="none" stroke-width="1" fill="none" fill-rule="evenodd">
        <g id="Group" transform="translate(0.000000, -2.000000)">
            <text id="news" font-family="Georgia" font-size="18" font-weight="normal" letter-spacing="4.75" fill="#9B9B9B">
                <tspan x="121" y="17">new</tspan>
                <tspan x="167.857422" y="17">s</tspan>
            </text>
            <g id="pimco_logo_news" transform="translate(0.000000, 2.000000)" fill="#214269">
                <g id="Page-1">
                    <g id="PIMCO-New-Logo-Mark-45mm">
                        <path d="M6.695,7.51 C6.999,7.592 7.387,7.676 7.827,7.676 C10.047,7.676 11.702,6.655 11.702,4.579 C11.702,2.749 10.047,1.89 7.594,1.89 C6.846,1.89 5.971,1.992 5.377,2.135 C5.349,2.908 5.27,4.17 5.27,9.059 C5.27,13.775 5.349,13.961 5.637,14.166 C5.868,14.328 6.643,14.429 7.646,14.429 L7.725,14.492 L7.725,15.078 L7.646,15.141 C6.331,15.102 5.091,15.041 3.854,15.041 C2.611,15.041 1.369,15.102 0.08,15.141 L0,15.078 L0,14.492 L0.08,14.429 C1.062,14.429 1.835,14.328 2.069,14.166 C2.353,13.961 2.431,13.775 2.431,9.059 L2.431,6.999 C2.431,2.276 2.353,2.095 2.069,1.89 C1.835,1.728 1.062,1.626 0.08,1.626 L0,1.569 L0,0.976 L0.08,0.916 C1.369,0.957 2.611,1.015 3.854,1.015 C5.403,1.015 6.948,0.916 8.396,0.916 C12.118,0.916 14.649,1.486 14.649,4.254 C14.649,6.858 12.014,8.527 8.603,8.527 C7.773,8.527 7.182,8.443 6.799,8.388 L6.461,7.689 L6.695,7.51" id="Fill-5"></path>
                        <path d="M26.123,0.976 L26.2,0.916 C27.493,0.957 28.733,1.015 29.976,1.015 C31.215,1.015 32.454,0.957 33.748,0.916 L33.824,0.976 L33.824,1.569 L33.748,1.626 C32.765,1.626 31.988,1.728 31.756,1.89 C31.474,2.095 31.396,2.276 31.396,6.999 L31.396,9.059 C31.396,13.775 31.474,13.961 31.756,14.166 C31.988,14.328 32.765,14.429 33.748,14.429 L33.824,14.49 L33.824,15.08 L33.748,15.141 C32.454,15.102 31.215,15.041 29.976,15.041 C28.733,15.041 27.493,15.102 26.2,15.141 L26.123,15.08 L26.123,14.49 L26.2,14.429 C27.183,14.429 27.959,14.328 28.19,14.166 C28.473,13.961 28.549,13.775 28.549,9.059 L28.549,6.999 C28.549,2.276 28.473,2.095 28.19,1.89 C27.959,1.728 27.183,1.626 26.2,1.626 L26.123,1.569 L26.123,0.976" id="Fill-6"></path>
                        <path d="M45.546,0.976 L45.624,0.916 C46.916,0.957 47.538,1.015 48.674,1.015 C49.476,1.015 50.38,0.957 50.85,0.916 C53.252,5.065 56.559,10.156 57.643,11.865 C59.996,8.227 62.27,4.597 64.519,0.916 C65.212,0.957 66.148,1.015 66.895,1.015 C67.642,1.015 68.701,0.957 69.425,0.916 L69.502,0.976 L69.502,1.568 L69.425,1.626 C68.442,1.626 67.669,1.728 67.437,1.89 C67.144,2.095 67.074,2.276 67.074,6.999 L67.074,9.059 C67.074,13.775 67.144,13.961 67.437,14.166 C67.669,14.328 68.442,14.429 69.425,14.429 L69.502,14.49 L69.502,15.08 L69.425,15.141 C68.136,15.102 66.895,15.041 65.65,15.041 C64.415,15.041 63.173,15.102 61.884,15.141 L61.8,15.08 L61.8,14.49 L61.884,14.429 C62.864,14.429 63.642,14.328 63.868,14.166 C64.153,13.961 64.237,13.775 64.237,9.059 L64.237,4.048 L64.178,4.048 C61.696,7.817 57.643,14.024 57.078,15.404 L56.532,15.404 C55.834,13.775 50.718,6.125 49.425,4.048 L49.376,4.048 L49.376,9.059 C49.376,13.775 49.449,13.961 49.735,14.166 C49.965,14.328 50.742,14.429 51.651,14.429 L51.727,14.49 L51.727,15.08 L51.651,15.141 C50.689,15.102 49.71,15.041 48.754,15.041 C47.72,15.041 46.657,15.102 45.624,15.141 L45.546,15.08 L45.546,14.49 L45.624,14.429 C46.608,14.429 47.385,14.328 47.616,14.166 C47.898,13.961 47.977,13.775 47.977,9.059 L47.977,6.999 C47.977,2.276 47.898,2.095 47.616,1.89 C47.385,1.728 46.608,1.626 45.624,1.626 L45.546,1.569 L45.546,0.976" id="Fill-7"></path>
                        <path d="M96.646,13.228 C96.435,13.614 96.252,14.002 96.068,14.389 C94.396,15.021 92.455,15.404 90.101,15.404 C85.005,15.404 80.119,12.965 80.119,8.164 C80.119,3.6 84.031,0.648 90.484,0.648 C92.632,0.648 95.378,1.099 96.484,1.404 L96.646,1.548 C96.283,2.399 96.132,3.909 96.15,4.418 L96.068,4.478 L95.246,4.478 L95.169,4.418 C95.169,3.909 95.091,3.398 95.017,2.889 C94.396,2.298 92.455,1.626 90.15,1.626 C85.322,1.626 83.171,4.639 83.171,7.447 C83.171,11.154 85.89,14.186 91.449,14.186 C92.97,14.186 94.886,13.858 96.33,13.09 L96.646,13.228" id="Fill-8"></path>
                        <path d="M117.743,1.626 C114.098,1.626 111.367,3.802 111.367,7.183 C111.367,11.602 114.35,14.429 118.25,14.429 C122.471,14.429 124.512,11.662 124.512,8.367 C124.512,3.132 120.557,1.626 117.743,1.626 L117.743,1.626 L117.743,1.626 Z M118.178,0.648 C123.395,0.648 127.559,2.871 127.559,7.676 C127.559,11.946 123.42,15.404 117.528,15.404 C110.478,15.404 108.314,11.356 108.314,7.919 C108.314,3.357 112.626,0.648 118.178,0.648 L118.178,0.648 L118.178,0.648 Z" id="Fill-9"></path>
                    </g>
                </g>
            </g>
        </g>
    </g>
</svg>